<?xml version="1.0" standalone="no"?>
<!DOCTYPE svg PUBLIC "-//W3C//DTD SVG 20010904//EN"
 "http://www.w3.org/TR/2001/REC-SVG-20010904/DTD/svg10.dtd">
<svg version="1.0" xmlns="http://www.w3.org/2000/svg"
 width="400.000000pt" height="400.000000pt" viewBox="0 0 400.000000 400.000000"
 preserveAspectRatio="xMidYMid meet">

<g transform="translate(0.000000,400.000000) scale(0.100000,-0.100000)"
fill="#000000" stroke="none">
<path d="M314 2466 l-34 -34 0 -427 0 -427 34 -34 34 -34 1647 0 c1193 0 1652
3 1668 11 58 30 57 16 57 483 l0 428 -34 34 -34 34 -1652 0 -1652 0 -34 -34z
m530 -287 c310 -176 308 -173 196 -238 -40 -22 -75 -41 -78 -41 -4 0 -30 24
-59 52 l-53 53 -158 -158 c-86 -86 -161 -157 -165 -157 -4 0 -7 142 -7 315 0
284 2 315 17 323 9 6 23 7 31 5 8 -3 132 -72 276 -154z m615 147 c15 -17 1
-28 -19 -15 -27 16 -59 10 -76 -16 -34 -52 15 -112 71 -87 14 6 25 18 25 27 0
9 -9 15 -25 15 -14 0 -25 5 -25 10 0 6 18 10 40 10 32 0 40 -4 40 -19 0 -10
-9 -30 -21 -45 -27 -34 -82 -36 -116 -4 -30 28 -32 89 -3 118 24 24 91 27 109
6z m141 4 c0 -5 -16 -10 -35 -10 -31 0 -35 -3 -35 -25 0 -22 4 -25 35 -25 19
0 35 -4 35 -10 0 -5 -16 -10 -35 -10 -28 0 -35 -4 -35 -20 0 -16 7 -20 35 -20
24 0 35 -5 35 -15 0 -11 -12 -15 -45 -15 l-45 0 0 80 0 80 45 0 c25 0 45 -4
45 -10z m130 0 c0 -5 -9 -10 -20 -10 -18 0 -20 -7 -20 -71 0 -52 -3 -70 -12
-67 -8 3 -14 29 -16 71 -3 59 -5 67 -22 67 -11 0 -20 5 -20 10 0 6 25 10 55
10 30 0 55 -4 55 -10z m100 -71 c0 -60 -3 -80 -12 -77 -9 3 -14 31 -16 81 -2
64 0 77 13 77 12 0 15 -15 15 -81z m130 71 c0 -5 -9 -10 -20 -10 -18 0 -20 -7
-20 -70 0 -56 -3 -70 -15 -70 -12 0 -15 14 -15 70 0 63 -2 70 -20 70 -11 0
-20 5 -20 10 0 6 25 10 55 10 30 0 55 -4 55 -10z m200 -10 c48 -48 10 -140
-57 -140 -70 0 -106 78 -62 134 26 33 88 37 119 6z m107 -30 c15 -27 31 -50
36 -50 4 0 7 23 7 50 0 28 5 50 10 50 6 0 10 -33 10 -80 0 -46 -4 -80 -10 -80
-5 0 -27 26 -47 57 l-38 57 -3 -57 c-5 -86 -22 -68 -22 23 0 97 15 105 57 30z
m-684 -234 c26 -18 27 -20 11 -37 -16 -17 -19 -18 -40 -4 -29 19 -87 19 -123
0 -30 -15 -61 -69 -61 -105 0 -36 31 -90 61 -105 48 -25 106 -19 140 14 46 46
39 61 -26 61 -52 0 -55 1 -55 25 0 25 1 25 81 25 l82 0 -5 -51 c-9 -86 -69
-139 -158 -139 -175 1 -234 235 -80 318 53 28 128 27 173 -2z m857 -146 l0
-160 -25 0 -25 0 0 160 0 160 25 0 25 0 0 -160z m500 145 c59 -31 69 -107 21
-156 -26 -25 -37 -29 -85 -29 l-56 0 0 -60 c0 -57 -1 -60 -25 -60 l-25 0 0
160 0 160 70 0 c44 0 82 -6 100 -15z m130 -145 l0 -160 -25 0 -25 0 0 160 0
160 25 0 25 0 0 -160z m-1240 35 c32 -17 60 -61 60 -95 0 -29 -26 -76 -52 -94
-12 -9 -37 -16 -56 -16 -68 0 -111 42 -112 109 0 36 6 49 34 77 38 38 77 44
126 19z m246 -4 c63 -38 70 -128 13 -175 -51 -43 -136 -30 -165 25 -25 50 -18
97 20 135 40 40 83 45 132 15z m252 9 l32 1 0 -109 c0 -60 -5 -123 -11 -141
-22 -61 -105 -80 -158 -35 -17 14 -31 29 -31 34 0 16 33 20 50 5 20 -18 71
-20 88 -3 7 7 12 23 12 37 0 19 -3 22 -12 13 -29 -29 -105 -7 -131 38 -29 48
-22 97 18 137 31 31 39 34 73 29 20 -3 52 -6 70 -6z m303 -19 c16 -16 29 -36
29 -44 0 -9 -27 -26 -70 -43 -38 -15 -70 -29 -70 -30 0 -2 11 -11 25 -20 22
-14 27 -14 55 0 30 14 60 13 60 -4 0 -20 -55 -50 -92 -50 -66 0 -120 71 -104
136 4 15 20 39 36 55 40 40 91 40 131 0z m608 14 c37 -19 41 -31 41 -126 l0
-79 -27 11 c-18 7 -30 6 -37 -1 -19 -19 -76 -11 -101 15 -32 31 -32 59 0 90
23 24 43 29 94 25 15 -1 22 3 19 12 -6 16 -65 23 -82 9 -9 -8 -18 -7 -31 2
-16 13 -16 15 10 35 32 26 74 28 114 7z m129 -62 c14 -35 28 -60 31 -57 3 3
15 31 27 62 17 48 25 58 47 60 15 2 27 0 27 -5 0 -4 -28 -72 -62 -150 -54
-123 -66 -143 -85 -143 -28 0 -29 8 -2 62 l21 43 -41 93 c-23 51 -41 95 -41
98 0 3 12 4 26 2 22 -2 31 -14 52 -65z"/>
<path d="M2068 2308 c-29 -23 -31 -54 -4 -84 21 -25 27 -27 52 -19 39 14 53
55 30 89 -18 28 -52 34 -78 14z"/>
<path d="M2822 1968 c3 -52 4 -53 36 -56 45 -5 82 21 82 56 0 40 -17 52 -73
52 l-48 0 3 -52z"/>
<path d="M1736 1894 c-33 -32 -14 -95 31 -109 26 -7 73 32 73 62 0 53 -68 83
-104 47z"/>
<path d="M1976 1894 c-33 -32 -14 -95 31 -109 26 -7 73 32 73 62 0 53 -68 83
-104 47z"/>
<path d="M2216 1894 c-30 -30 -18 -90 22 -105 39 -15 72 12 72 59 0 21 -5 43
-12 50 -17 17 -64 15 -82 -4z"/>
<path d="M2532 1893 c-32 -32 -19 -39 31 -18 40 16 47 29 21 39 -22 9 -22 9
-52 -21z"/>
<path d="M3152 1828 c-17 -17 -15 -26 9 -38 16 -9 26 -8 45 5 35 23 31 45 -9
45 -18 0 -38 -5 -45 -12z"/>
</g>
</svg>
