<?xml version="1.0" standalone="no"?>
<!DOCTYPE svg PUBLIC "-//W3C//DTD SVG 20010904//EN"
 "http://www.w3.org/TR/2001/REC-SVG-20010904/DTD/svg10.dtd">
<svg version="1.0" xmlns="http://www.w3.org/2000/svg"
 width="498.000000pt" height="167.000000pt" viewBox="0 0 498.000000 167.000000"
 preserveAspectRatio="xMidYMid meet">

<g transform="translate(0.000000,167.000000) scale(0.100000,-0.100000)"
fill="#000000" stroke="none">
<path d="M233 1630 c-58 -12 -94 -32 -135 -78 -64 -71 -63 -55 -63 -717 0
-680 -2 -658 79 -733 79 -73 -118 -67 2376 -67 2494 0 2297 -6 2376 67 81 75
79 53 79 733 0 483 -3 608 -14 639 -18 53 -77 115 -131 140 l-45 21 -2240 1
c-1232 1 -2259 -2 -2282 -6z m2267 -440 c0 -123 -1 -130 -20 -130 -19 0 -20 7
-20 130 0 123 1 130 20 130 19 0 20 -7 20 -130z m640 0 c0 -109 -2 -130 -15
-130 -8 0 -15 4 -15 9 0 5 -14 3 -31 -6 -77 -38 -139 59 -94 147 19 36 66 48
100 26 l25 -16 0 50 c0 38 4 50 15 50 13 0 15 -21 15 -130z m880 80 l0 -49 30
17 c27 15 32 16 57 2 27 -15 28 -20 31 -98 2 -68 0 -82 -13 -82 -12 0 -15 13
-15 63 0 67 -10 87 -45 87 -35 0 -45 -20 -45 -87 0 -56 -2 -63 -20 -63 -19 0
-20 7 -20 130 0 123 1 130 20 130 17 0 20 -7 20 -50z m-3062 -10 c-8 -79 -83
-160 -150 -160 -22 0 -28 5 -28 23 1 34 34 99 68 130 23 23 85 54 111 57 2 0
1 -22 -1 -50z m655 39 c47 -13 77 -57 77 -116 0 -90 -39 -123 -145 -123 l-65
0 0 118 c0 65 3 122 7 125 10 11 83 8 126 -4z m2277 -34 c0 -18 5 -25 20 -25
11 0 20 -7 20 -15 0 -8 -9 -15 -20 -15 -18 0 -20 -7 -20 -56 0 -47 3 -57 20
-61 32 -8 24 -33 -10 -33 -37 0 -50 27 -50 101 0 37 -4 49 -15 49 -8 0 -15 7
-15 15 0 8 7 15 15 15 9 0 15 9 15 25 0 18 5 25 20 25 15 0 20 -7 20 -25z
m-2009 -44 c41 -42 41 -101 -1 -143 -26 -26 -36 -30 -66 -25 -46 8 -61 21 -73
64 -28 101 70 173 140 104z m499 9 c16 -16 20 -33 20 -95 0 -68 -2 -75 -20
-75 -17 0 -19 8 -22 73 -3 67 -5 72 -26 75 -40 6 -52 -14 -52 -84 0 -57 -2
-64 -20 -64 -19 0 -20 7 -20 91 l0 91 24 -4 c14 -3 31 -1 38 3 23 15 57 10 78
-11z m323 -11 c25 -31 23 -113 -3 -139 -42 -42 -116 -33 -139 16 -23 52 -7
122 33 143 31 15 88 5 109 -20z m204 4 c8 -10 13 -47 13 -90 0 -58 -3 -73 -15
-73 -8 0 -15 4 -15 9 0 5 -13 3 -29 -5 -39 -19 -80 -9 -92 24 -15 39 11 69 66
77 34 6 45 12 45 25 0 27 -35 34 -70 14 -32 -19 -44 -16 -35 8 15 39 107 46
132 11z m546 -4 c19 -23 23 -98 7 -128 -13 -25 -64 -45 -95 -37 -42 11 -65 44
-65 96 0 48 11 69 45 89 28 16 87 5 108 -20z m205 15 c20 -13 22 -24 22 -95 0
-64 -3 -79 -15 -79 -12 0 -15 13 -15 56 0 66 -13 94 -43 94 -37 0 -47 -19 -47
-87 0 -56 -2 -63 -20 -63 -19 0 -20 7 -20 90 0 83 1 90 20 90 11 0 20 -5 20
-11 0 -5 10 -3 22 5 12 9 29 16 38 16 9 0 26 -7 38 -16z m685 -15 c9 -12 17
-34 17 -50 l0 -29 -65 0 c-72 0 -86 -16 -40 -46 23 -15 27 -15 50 0 26 17 55
21 55 8 0 -22 -44 -47 -81 -47 -57 0 -84 31 -84 96 0 44 4 54 29 76 24 20 36
24 65 19 20 -3 44 -15 54 -27z m-2353 -39 c12 -56 30 -90 30 -57 0 7 7 37 15
65 23 76 46 71 72 -15 22 -75 18 -78 44 30 7 26 15 37 28 37 18 0 17 -4 -5
-82 -13 -46 -24 -87 -24 -91 0 -5 -10 -7 -22 -5 -18 2 -26 16 -41 68 -11 36
-21 61 -23 55 -2 -5 -10 -36 -19 -68 -14 -49 -20 -58 -37 -55 -17 2 -25 19
-44 88 -13 47 -24 86 -24 88 0 1 8 2 19 2 14 0 21 -13 31 -60z m-975 -104 c26
-8 63 -29 81 -47 l33 -32 -29 -23 c-95 -80 -90 -221 10 -307 l43 -36 -33 -67
c-18 -37 -54 -89 -79 -115 -40 -41 -53 -49 -84 -49 -21 0 -54 7 -74 15 -45 19
-109 19 -163 0 -79 -28 -108 -21 -162 37 -52 54 -108 162 -127 242 -20 80 -15
188 9 243 56 126 160 170 294 123 56 -19 58 -19 109 0 93 33 108 35 172 16z
m777 -401 c48 -132 90 -248 94 -257 4 -15 -1 -18 -38 -18 l-44 0 -23 70 -22
71 -97 -3 -97 -3 -24 -67 -23 -68 -39 0 c-22 0 -39 4 -39 9 0 8 146 420 172
484 10 25 15 28 52 25 l41 -3 87 -240z m1415 225 c45 -20 83 -69 83 -107 0
-20 -5 -23 -35 -23 -28 0 -37 5 -44 23 -37 97 -232 70 -207 -28 8 -30 40 -48
126 -70 135 -35 176 -76 168 -167 -6 -57 -33 -91 -93 -119 -46 -21 -129 -25
-187 -7 -47 14 -108 78 -108 113 0 22 4 25 40 25 28 0 40 -4 40 -14 0 -8 14
-26 31 -40 24 -20 41 -26 79 -26 84 0 130 38 116 94 -8 31 -40 49 -126 71
-127 33 -170 72 -170 152 0 86 74 143 185 143 38 0 76 -8 102 -20z m263 -85
c0 -45 0 -45 35 -45 32 0 35 -2 35 -30 0 -28 -3 -30 -35 -30 l-35 0 0 -113 c0
-120 6 -137 47 -137 19 0 23 -5 23 -29 0 -36 -32 -47 -86 -28 -55 18 -64 42
-64 185 l0 122 -25 0 c-21 0 -25 5 -25 30 0 25 4 30 25 30 23 0 25 4 25 45 l0
45 40 0 40 0 0 -45z m-1283 -46 c41 -15 81 -57 94 -98 15 -45 15 -136 -1 -176
-38 -99 -153 -133 -230 -69 l-30 26 0 -91 0 -91 -40 0 -40 0 0 250 0 250 40 0
c34 0 40 -3 40 -21 0 -20 0 -20 28 -1 48 34 89 40 139 21z m452 -16 c49 -37
66 -80 66 -168 0 -100 -20 -140 -87 -173 -57 -29 -113 -23 -158 15 l-30 25 0
-91 0 -91 -35 0 -35 0 0 250 0 250 35 0 c31 0 35 -3 35 -27 l0 -26 23 21 c12
11 33 26 47 31 36 15 108 7 139 -16z m1220 -1 c83 -61 106 -197 48 -284 -27
-40 -98 -78 -147 -78 -42 0 -108 29 -133 58 -25 27 -46 88 -47 132 0 85 51
170 114 190 46 14 135 4 165 -18z m339 -9 c3 -29 0 -33 -22 -33 -37 0 -72 -19
-85 -47 -6 -13 -11 -77 -11 -143 l0 -120 -40 0 -40 0 0 185 0 185 40 0 c35 0
40 -3 40 -22 1 -20 2 -21 13 -7 19 24 50 39 77 36 20 -2 26 -8 28 -34z m267
17 c49 -23 80 -73 90 -142 l7 -48 -137 0 -137 0 6 -32 c8 -40 39 -74 73 -81
37 -7 91 11 103 33 13 24 80 29 80 6 0 -44 -93 -106 -160 -106 -46 0 -111 31
-138 65 -60 76 -50 217 20 282 49 46 126 56 193 23z"/>
<path d="M3022 1198 c-15 -15 -16 -80 0 -96 39 -39 98 13 82 71 -8 26 -16 33
-39 35 -17 2 -36 -3 -43 -10z"/>
<path d="M1520 1180 l0 -90 40 0 c56 0 90 34 90 90 0 56 -34 90 -90 90 l-40 0
0 -90z"/>
<path d="M1780 1184 c-13 -32 -12 -38 2 -69 8 -17 19 -25 38 -25 36 0 50 17
50 60 0 43 -15 60 -52 60 -21 0 -31 -6 -38 -26z"/>
<path d="M2602 1198 c-17 -17 -15 -83 2 -98 23 -18 59 -8 75 21 21 38 0 89
-38 89 -15 0 -32 -5 -39 -12z"/>
<path d="M2809 1124 c-11 -14 -10 -18 5 -29 24 -18 60 -4 64 24 3 17 -2 21
-26 21 -16 0 -36 -7 -43 -16z"/>
<path d="M3352 1198 c-17 -17 -15 -83 2 -98 23 -18 59 -8 75 21 21 38 0 89
-38 89 -15 0 -32 -5 -39 -12z"/>
<path d="M4252 1204 c-34 -23 -27 -34 23 -34 49 0 62 20 26 40 -25 13 -22 13
-49 -6z"/>
<path d="M1656 810 c-15 -38 -66 -195 -66 -202 0 -4 34 -8 76 -8 87 0 83 -16
28 135 -19 53 -35 84 -38 75z"/>
<path d="M2067 699 c-41 -24 -62 -130 -36 -182 32 -62 102 -75 148 -29 74 73
31 223 -63 222 -17 0 -39 -5 -49 -11z"/>
<path d="M2466 680 c-68 -82 -26 -220 68 -220 94 0 132 154 56 230 -32 32 -92
27 -124 -10z"/>
<path d="M3722 705 c-56 -24 -79 -115 -48 -190 8 -18 23 -38 34 -44 26 -14 78
-14 104 0 43 23 61 118 35 182 -24 56 -70 75 -125 52z"/>
<path d="M4354 710 c-25 -10 -64 -57 -64 -76 0 -11 21 -14 95 -14 60 0 95 4
95 10 0 24 -30 67 -55 78 -30 14 -42 14 -71 2z"/>
</g>
</svg>
